Results
version=1
nRows=19
nColumns=24
inDegrees=yes
endheader
time	pelvis_tilt	pelvis_list	pelvis_rotation	pelvis_tx	pelvis_ty	pelvis_tz	hip_flexion_r	hip_adduction_r	hip_rotation_r	knee_angle_r	ankle_angle_r	subtalar_angle_r	mtp_angle_r	hip_flexion_l	hip_adduction_l	hip_rotation_l	knee_angle_l	ankle_angle_l	subtalar_angle_l	mtp_angle_l	lumbar_extension	lumbar_bending	lumbar_rotation
      0.81683333	      0.38136028	      4.76216994	     -1.37933049	     -0.38695737	      1.02205971	      0.30573555	     10.61389829	     -1.63498966	      0.24056075	    -18.31016085	      3.36556638	     -7.70909655	     12.00780081	     11.94770803	      4.01933903	     -7.63131222	    -63.59667319	     -1.35117147	    -16.49186451	      3.97006094	     -4.17722290	     -5.41202785	      3.43858119
      0.82100000	      0.39258977	      4.86190029	     -1.60777806	     -0.38174031	      1.02281455	      0.30610972	     10.16062830	     -1.74675812	      0.27540727	    -18.01556028	      3.49467119	     -7.43447886	     12.07613160	     12.47875106	      4.08038240	     -7.86310043	    -63.29181261	     -1.07737711	    -15.97748364	      4.00176773	     -4.20011980	     -5.52614470	      3.78456971
      0.82516667	      0.41912883	      4.95694447	     -1.83275219	     -0.37653682	      1.02355120	      0.30647835	      9.68839429	     -1.85659623	      0.30737017	    -17.71264238	      3.62250662	     -7.16125052	     12.14477088	     12.98343775	      4.13051776	     -8.09357914	    -62.94059698	     -0.81505732	    -15.43197873	      4.04933957	     -4.24030345	     -5.63620082	      4.12597341
      0.82933333	      0.43661781	      5.04711297	     -2.06257535	     -0.37134199	      1.02421849	      0.30682836	      9.23022347	     -1.96479422	      0.33765582	    -17.41433781	      3.75267810	     -6.89732626	     12.21302651	     13.48829047	      4.17413407	     -8.32135605	    -62.54719255	     -0.56419106	    -14.86922820	      4.11056738	     -4.26492308	     -5.73719929	      4.45985213
      0.83350000	      0.44718113	      5.12671621	     -2.28930179	     -0.36614453	      1.02483509	      0.30718053	      8.78040283	     -2.06279530	      0.36758154	    -17.11886372	      3.87698574	     -6.63400908	     12.28074061	     13.98765405	      4.19869931	     -8.54831740	    -62.10761719	     -0.31379062	    -14.26498981	      4.18361069	     -4.28161601	     -5.82098842	      4.79493210
      0.83766667	      0.47185650	      5.21462171	     -2.51993151	     -0.36096306	      1.02543790	      0.30751608	      8.31786503	     -2.17416571	      0.39927632	    -16.82367256	      4.00627695	     -6.36575649	     12.35209024	     14.45804714	      4.23471007	     -8.77103991	    -61.61305542	     -0.09142452	    -13.67864671	      4.27089434	     -4.31603250	     -5.91515627	      5.13662573
      0.84183333	      0.48657079	      5.27533701	     -2.73853993	     -0.35579373	      1.02595829	      0.30784157	      7.86034893	     -2.25751948	      0.42201745	    -16.51846801	      4.13255171	     -6.10544745	     12.42831415	     14.93486809	      4.23433502	     -8.98364446	    -61.09813892	      0.13273250	    -13.07629646	      4.37503073	     -4.34479599	     -5.98586752	      5.47248288
      0.84600000	      0.49193759	      5.33690751	     -2.95509161	     -0.35063529	      1.02642481	      0.30815408	      7.41848148	     -2.34373185	      0.44921403	    -16.22356393	      4.26583924	     -5.85321908	     12.50788868	     15.40799160	      4.23359811	     -9.19079325	    -60.53375781	      0.34045560	    -12.49174647	      4.49321605	     -4.36204660	     -6.05662119	      5.80344173
      0.85016667	      0.50088604	      5.40096598	     -3.17717406	     -0.34548483	      1.02685406	      0.30845961	      6.97734753	     -2.43578725	      0.47713915	    -15.93261257	      4.35745436	     -5.61869941	     12.56603454	     15.86215556	      4.23234299	     -9.40497128	    -59.91768870	      0.49851667	    -11.92776729	      4.58666436	     -4.37884836	     -6.12431861	      6.05564402
      0.85433333	      0.50721825	      5.43132378	     -3.37337433	     -0.34034412	      1.02721193	      0.30874628	      6.52472210	     -2.49206113	      0.49137983	    -15.62459018	      4.53173108	     -5.35744870	     12.66845020	     16.31507920	      4.19522277	     -9.58436264	    -59.29339172	      0.71456560	    -11.37268690	      4.75928327	     -4.41110255	     -6.16575642	      6.45837141
      0.85850000	      0.52333680	      5.48176101	     -3.58692005	     -0.33520966	      1.02755270	      0.30902259	      6.07974070	     -2.57459629	      0.51414670	    -15.34369148	      4.63141721	     -5.14062409	     12.73054819	     16.73404731	      4.17668921	     -9.78912095	    -58.59528232	      0.85473583	    -10.84316023	      4.87127789	     -4.43385195	     -6.21025995	      6.68433704
      0.86266667	      0.53915574	      5.50927033	     -3.78724389	     -0.33007416	      1.02785595	      0.30928711	      5.62056863	     -2.63388768	      0.53247418	    -15.03758567	      4.75304054	     -4.91044994	     12.79207676	     17.14182992	      4.13542809	     -9.96878317	    -57.87089919	      1.00334680	    -10.32862820	      4.98650390	     -4.47025711	     -6.24721787	      6.95707779
      0.86683333	      0.53190649	      5.53463786	     -3.97854796	     -0.32495403	      1.02805184	      0.30953093	      5.19582375	     -2.69161706	      0.54540959	    -14.75366842	      4.89220824	     -4.68448367	     12.85622744	     17.56529035	      4.08931365	    -10.14459107	    -57.11606832	      1.14401029	     -9.85559481	      5.11014846	     -4.48054906	     -6.27604960	      7.24135339
      0.87100000	      0.54750011	      5.54978573	     -4.16047470	     -0.31983512	      1.02825934	      0.30975854	      4.73660136	     -2.74163824	      0.55669182	    -14.45194875	      5.01344427	     -4.47018925	     12.91397546	     17.94675944	      4.03664987	    -10.30542888	    -56.31623981	      1.25118859	     -9.43555645	      5.22409180	     -4.52056238	     -6.29570661	      7.49710157
      0.87516667	      0.55384769	      5.55128289	     -4.33505939	     -0.31471920	      1.02838894	      0.30996490	      4.29045740	     -2.77860961	      0.55992377	    -14.16182807	      5.15450705	     -4.25846004	     12.97648259	     18.32524928	      3.96983508	    -10.45721749	    -55.48780325	      1.36484056	     -9.04235573	      5.35100337	     -4.54986453	     -6.29538619	      7.76871880
      0.87933333	      0.54376672	      5.53804475	     -4.49275312	     -0.30960755	      1.02842929	      0.31015009	      3.85846487	     -2.79937894	      0.55545534	    -13.87193167	      5.33292984	     -4.04339432	     13.06985522	     18.71302124	      3.88768577	    -10.59036510	    -54.64083260	      1.48396108	     -8.70352759	      5.54660856	     -4.57264305	     -6.28555618	      8.09836079
      0.88350000	      0.52724501	      5.54061505	     -4.65425593	     -0.30448831	      1.02845196	      0.31031754	      3.43969630	     -2.83939097	      0.56318942	    -13.58865835	      5.41668628	     -3.86761208	     13.12076670	     19.08243456	      3.82573514	    -10.72607016	    -53.72384053	      1.50444764	     -8.41740848	      5.65513944	     -4.57526170	     -6.28374426	      8.25323252
      0.88766667	      0.52762117	      5.51319280	     -4.79965153	     -0.29937526	      1.02843444	      0.31047214	      2.99264552	     -2.84857858	      0.55574958	    -13.29534141	      5.55305800	     -3.67860257	     13.17796000	     19.42266127	      3.73301338	    -10.84394607	    -52.79311244	      1.56589206	     -8.13676973	      5.77868121	     -4.60907142	     -6.25279660	      8.48087988
      0.89183333	      0.53066538	      5.48209052	     -4.93146424	     -0.29426499	      1.02836990	      0.31058986	      2.54328058	     -2.85679611	      0.53623634	    -13.00929035	      5.73167285	     -3.48437751	     13.26263362	     19.74634837	      3.64507803	    -10.94309201	    -51.82835909	      1.62343843	     -7.93578306	      5.96743596	     -4.64895731	     -6.22009788	      8.76110829
